# xmcd CD database file
# Copyright (C) 1995-1998 Ti Kan
#
# Track frame offsets:
#	183
#	22265
#	46823
#	73420
#	98220
#	116228
#	134333
#	159493
#	177940
#
# Disc length: 2595 seconds
#
# Revision: 1
# Processed by: cddbd v1.5.1PL0 Copyright (c) Steve Scherf et al.
# Submitted via: CDex 1.40Beta3
#
DISCID=820a2109
DTITLE=Easy Rider - Travellin' band
DYEAR=1992
DGENRE=Blues
TTITLE0=Keep Yourself Sane, Fall In Love Again
TTITLE1=Coming To Life
TTITLE2=Love You Madly
TTITLE3=Love Is Gonna Catch You When You're Fallin
TTITLE4=Can't Stand So Much Alone
TTITLE5=Honey With A Milk And Pine
TTITLE6=Sun Of Your Smile
TTITLE7=Don't Hurt Nobody
TTITLE8=Time For Love
EXTD=YEAR: 1992 ID3G:   0
EXTT0=
EXTT1=
EXTT2=
EXTT3=
EXTT4=
EXTT5=
EXTT6=
EXTT7=
EXTT8=
PLAYORDER=
